<?xml version="1.0" encoding="utf-8"?>
<!-- Generator: Adobe Illustrator 15.0.2, SVG Export Plug-In . SVG Version: 6.00 Build 0)  -->
<!DOCTYPE svg PUBLIC "-//W3C//DTD SVG 1.0//EN" "http://www.w3.org/TR/2001/REC-SVG-20010904/DTD/svg10.dtd">
<svg version="1.0" id="Layer_1" xmlns="http://www.w3.org/2000/svg" xmlns:xlink="http://www.w3.org/1999/xlink" x="0px" y="0px"
	 width="64px" height="64px" viewBox="0 0 64 64" enable-background="new 0 0 64 64" xml:space="preserve">
<ellipse fill="#FFFFFF" stroke="#D40000" stroke-width="10" stroke-miterlimit="10" cx="31.936" cy="32.042" rx="26.22" ry="26.444"/>
<rect x="26.702" y="0.539" fill="#FFFFFF" stroke="#FFFFFF" stroke-miterlimit="10" width="10.596" height="16.201"/>
<rect x="50.969" y="26.47" fill="#FFFFFF" stroke="#FFFFFF" stroke-miterlimit="10" width="12.485" height="11.144"/>
<g>
	<rect x="14.121" y="17.032" fill="none" width="38.629" height="35.718"/>
	<path d="M17.32,47.104V17.039h15.483c2.871,0,5.065,0.246,6.583,0.738s2.741,1.405,3.671,2.738
		c0.929,1.333,1.396,2.957,1.396,4.871c0,1.668-0.357,3.107-1.068,4.317s-1.689,2.191-2.934,2.943
		c-0.793,0.478-1.881,0.875-3.264,1.189c1.107,0.37,1.914,0.74,2.419,1.109c0.342,0.246,0.837,0.773,1.485,1.58
		c0.649,0.808,1.084,1.43,1.302,1.868l4.499,8.712H36.396l-4.966-9.188c-0.629-1.189-1.189-1.963-1.682-2.318
		c-0.67-0.465-1.429-0.697-2.276-0.697h-0.82v12.203H17.32z M26.651,29.22h3.917c0.424,0,1.244-0.137,2.461-0.41
		c0.615-0.123,1.117-0.438,1.508-0.943c0.389-0.506,0.584-1.087,0.584-1.743c0-0.971-0.308-1.716-0.923-2.235
		s-1.771-0.779-3.466-0.779h-4.081V29.22z"/>
</g>
</svg>
